<svg width="122" height="24" viewBox="0 0 122 24" fill="none" xmlns="http://www.w3.org/2000/svg">
<path fill-rule="evenodd" clip-rule="evenodd" d="M12.3481 0.160607L9.27036 0.155987C5.81299 0.155987 3.57803 2.44445 3.57803 5.98573V8.67404H0.483285C0.216953 8.67404 0 8.88936 0 9.15644V13.0517C0 13.3175 0.216953 13.5341 0.483285 13.5341H3.57803V23.3616C3.57803 23.6275 3.79499 23.844 4.06255 23.844H8.09857C8.36613 23.844 8.58309 23.6275 8.58309 23.3616V13.5341H12.2009C12.4685 13.5341 12.6845 13.3175 12.6845 13.0517L12.6867 9.15644C12.6867 9.02891 12.6348 8.90631 12.5444 8.81482C12.454 8.72456 12.3312 8.67404 12.2022 8.67404H8.58309V6.39513C8.58309 5.30003 8.84479 4.74401 10.2733 4.74401L12.3469 4.74277C12.6145 4.74277 12.8302 4.52622 12.8302 4.26038V0.644546C12.8302 0.377163 12.6145 0.16184 12.3481 0.160607Z" fill="#4267B2"/>
<path d="M35.9238 17H33.4253V6.93115H28.5859V17H26.0957V4.91406H35.9238V17ZM37.584 12.4263C37.584 11.5353 37.7555 10.7412 38.0986 10.0439C38.4417 9.34668 38.9342 8.80713 39.5762 8.42529C40.2236 8.04346 40.9735 7.85254 41.8257 7.85254C43.0376 7.85254 44.0254 8.22331 44.7891 8.96484C45.5583 9.70638 45.9871 10.7135 46.0757 11.9863L46.0923 12.6006C46.0923 13.9785 45.7077 15.0853 44.9385 15.9209C44.1693 16.751 43.1372 17.166 41.8423 17.166C40.5474 17.166 39.5125 16.751 38.7378 15.9209C37.9686 15.0908 37.584 13.9619 37.584 12.5342V12.4263ZM39.9829 12.6006C39.9829 13.4528 40.1434 14.1058 40.4644 14.5596C40.7853 15.0078 41.2446 15.2319 41.8423 15.2319C42.4233 15.2319 42.8771 15.0106 43.2036 14.5679C43.5301 14.1196 43.6934 13.4058 43.6934 12.4263C43.6934 11.5907 43.5301 10.9432 43.2036 10.4839C42.8771 10.0246 42.4178 9.79492 41.8257 9.79492C41.2391 9.79492 40.7853 10.0246 40.4644 10.4839C40.1434 10.9377 39.9829 11.6432 39.9829 12.6006ZM47.0967 15.0659C47.639 14.4904 48.007 13.9204 48.2007 13.356C48.3944 12.7915 48.5023 11.9919 48.5244 10.957L48.5908 8.01855H55.1982V15.0659H56.4932V19.6978H54.0942V17H48.7734V19.6978H46.3247V15.0659H47.0967ZM49.9272 15.0659H52.8076V10.0024H50.9399L50.9233 11.0815C50.8735 12.7306 50.5415 14.0588 49.9272 15.0659ZM61.8472 17.166C60.5301 17.166 59.4565 16.762 58.6265 15.9541C57.8019 15.1462 57.3896 14.0698 57.3896 12.7251V12.4927C57.3896 11.5907 57.564 10.7855 57.9126 10.0771C58.2612 9.36328 58.7537 8.81543 59.3901 8.43359C60.0321 8.04622 60.7625 7.85254 61.5815 7.85254C62.8101 7.85254 63.7757 8.23991 64.4785 9.01465C65.1868 9.78939 65.541 10.8879 65.541 12.3101V13.2896H59.8218C59.8993 13.8761 60.1317 14.3465 60.519 14.7007C60.9119 15.0549 61.4072 15.2319 62.0049 15.2319C62.929 15.2319 63.6512 14.8971 64.1714 14.2275L65.3501 15.5474C64.9904 16.0565 64.5034 16.4549 63.8892 16.7427C63.2749 17.0249 62.5942 17.166 61.8472 17.166ZM61.5732 9.79492C61.0973 9.79492 60.71 9.9554 60.4111 10.2764C60.1178 10.5973 59.9297 11.0566 59.8467 11.6543H63.1836V11.4634C63.1725 10.9321 63.0286 10.5226 62.752 10.2349C62.4753 9.94157 62.0824 9.79492 61.5732 9.79492ZM74.7217 8.01855V17H72.3228V9.96094H70.2061L70.0566 12.7334C69.9626 14.2109 69.672 15.2873 69.1851 15.9624C68.6981 16.6375 67.9731 16.9834 67.0103 17H66.1968L66.1719 15.0493L66.4707 15.0244C66.9023 14.9912 67.2178 14.7367 67.417 14.2607C67.6162 13.7848 67.7407 12.9741 67.7905 11.8286L67.9565 8.01855H74.7217ZM81.9849 8.01855H84.3838V17H81.9849V11.4551L78.98 17H76.5728V8.01855H78.98V13.5552L81.9849 8.01855ZM93.6724 9.94434H90.792V17H88.3848V9.94434H85.5542V8.01855H93.6724V9.94434ZM97.4492 10.6499H99.1675C99.9422 10.6499 100.623 10.7799 101.209 11.04C101.796 11.3001 102.244 11.6737 102.554 12.1606C102.87 12.6421 103.027 13.2038 103.027 13.8457C103.027 14.792 102.676 15.5557 101.973 16.1367C101.276 16.7122 100.324 17 99.1177 17H95.042V8.01855H97.4492V10.6499ZM97.4492 12.5757V15.0825H99.1509C99.6268 15.0825 99.992 14.9718 100.247 14.7505C100.501 14.5291 100.628 14.2275 100.628 13.8457C100.628 13.4583 100.504 13.1512 100.255 12.9243C100.006 12.6919 99.6379 12.5757 99.1509 12.5757H97.4492ZM108.116 15.2319C108.558 15.2319 108.918 15.1102 109.195 14.8667C109.472 14.6232 109.615 14.2995 109.626 13.8955H111.876C111.87 14.5042 111.704 15.0632 111.378 15.5723C111.051 16.0758 110.603 16.4688 110.033 16.751C109.469 17.0277 108.843 17.166 108.157 17.166C106.873 17.166 105.861 16.7593 105.119 15.9458C104.378 15.1268 104.007 13.9979 104.007 12.5591V12.4014C104.007 11.0179 104.375 9.9139 105.111 9.08936C105.847 8.26481 106.857 7.85254 108.141 7.85254C109.264 7.85254 110.163 8.1735 110.838 8.81543C111.519 9.45182 111.865 10.3013 111.876 11.3638H109.626C109.615 10.8989 109.472 10.5226 109.195 10.2349C108.918 9.94157 108.553 9.79492 108.099 9.79492C107.54 9.79492 107.117 9.99967 106.829 10.4092C106.547 10.8132 106.406 11.4717 106.406 12.3848V12.6338C106.406 13.5579 106.547 14.222 106.829 14.626C107.111 15.0299 107.54 15.2319 108.116 15.2319ZM120.733 8.01855V17H118.342V13.8955H116.823L115.097 17H112.665L114.624 13.4888C114.087 13.2397 113.672 12.9022 113.378 12.4761C113.091 12.05 112.947 11.5658 112.947 11.0234C112.947 10.1546 113.282 9.44352 113.951 8.89014C114.626 8.33122 115.528 8.04069 116.657 8.01855H120.733ZM116.699 12.2188H118.342V9.94434H116.782C116.356 9.94434 116.01 10.0578 115.744 10.2847C115.479 10.506 115.346 10.7772 115.346 11.0981C115.346 11.4191 115.473 11.6847 115.728 11.895C115.982 12.1053 116.306 12.2132 116.699 12.2188Z" fill="#4267B2"/>
</svg>
