<svg width="26" height="22" viewBox="0 0 26 22" fill="none" xmlns="http://www.w3.org/2000/svg">
<path fill-rule="evenodd" clip-rule="evenodd" d="M25.9904 3.15631C25.0385 3.56736 24.0075 3.85193 22.9297 3.97643C24.0318 3.33417 24.8721 2.31642 25.276 1.10304C24.2449 1.69787 23.1043 2.13066 21.8825 2.36188C20.9164 1.35797 19.5281 0.725586 17.9978 0.725586C15.0569 0.725586 12.67 3.04959 12.67 5.9131C12.67 6.32218 12.7187 6.71544 12.806 7.09487C8.37333 6.87749 4.45008 4.81631 1.81767 1.67416C1.35694 2.43895 1.09512 3.33417 1.09512 4.28472C1.09512 6.08306 2.03889 7.67389 3.46572 8.59875C2.59298 8.57702 1.77707 8.3379 1.05656 7.95056V8.0138C1.05656 10.5295 2.89539 12.6282 5.3289 13.1084C4.88442 13.2231 4.40949 13.2843 3.92644 13.2843C3.58546 13.2843 3.25261 13.2547 2.91975 13.1934C3.6017 15.2546 5.56637 16.7506 7.8984 16.798C6.07377 18.1873 3.77422 19.0133 1.27779 19.0133C0.849539 19.0133 0.429408 18.9896 0.00927734 18.9441C2.37175 20.4184 5.17059 21.2741 8.18255 21.2741C17.9815 21.2741 23.3418 13.3693 23.3418 6.51584L23.3255 5.84394C24.3728 5.11077 25.276 4.19974 25.9904 3.15631Z" fill="#1DA1F2"/>
</svg>
