<svg width="30" height="18" viewBox="0 0 30 18" fill="none" xmlns="http://www.w3.org/2000/svg">
<path fill-rule="evenodd" clip-rule="evenodd" d="M27.9962 14.0274C27.1515 13.0036 26.1592 12.131 25.2201 11.2044C24.3724 10.3677 24.3177 9.88333 25.0006 8.91783C25.7433 7.86511 26.5436 6.85284 27.2936 5.80457C27.9933 4.82423 28.7103 3.84722 29.0789 2.67386C29.3127 1.92886 29.106 1.59811 28.349 1.46745C28.2183 1.44444 28.0836 1.44444 27.9504 1.44444L23.4605 1.4385C22.9069 1.42996 22.6015 1.67347 22.4062 2.16939C22.1411 2.83941 21.8698 3.50906 21.5545 4.15606C20.8419 5.62045 20.0445 7.03844 18.9274 8.23779C18.6807 8.50172 18.4083 8.83654 17.9967 8.69883C17.4802 8.50877 17.3297 7.65055 17.337 7.36027L17.3326 2.12002C17.2339 1.37205 17.0687 1.03686 16.3344 0.89209L11.6695 0.893203C11.0472 0.893203 10.7345 1.1356 10.4019 1.52981C10.2099 1.75773 10.1526 1.90547 10.5469 1.98082C11.3211 2.12893 11.7572 2.63488 11.8733 3.42071C12.0583 4.675 12.0454 5.93375 11.9393 7.19212C11.9078 7.56035 11.8446 7.92747 11.6996 8.26972C11.4746 8.81056 11.1104 8.91932 10.6328 8.58709C10.1996 8.28679 9.89413 7.86362 9.5975 7.43711C8.4789 5.83946 7.58534 4.11523 6.85845 2.30414C6.64773 1.78075 6.28465 1.46337 5.73691 1.45594C4.38886 1.43441 3.04228 1.42996 1.69423 1.45594C0.884009 1.47191 0.643181 1.86909 0.973218 2.61298C2.44021 5.91333 4.07351 9.12199 6.20462 12.0441C7.30009 13.5449 8.55636 14.8686 10.1797 15.8066C12.0194 16.8708 14 17.1901 16.0866 17.0913C17.0632 17.0449 17.3572 16.7884 17.4016 15.8036C17.4332 15.131 17.5077 14.461 17.8374 13.8563C18.1586 13.262 18.6476 13.1488 19.2112 13.5185C19.4924 13.7041 19.7288 13.9391 19.9542 14.187C20.5034 14.7962 21.0339 15.4224 21.6048 16.0096C22.3203 16.7465 23.1679 17.1811 24.2333 17.0928H28.3619C29.026 17.0494 29.3715 16.2242 28.99 15.4747C28.722 14.9484 28.3692 14.4799 27.9962 14.0274Z" fill="#5B88BD"/>
</svg>
